<svg width="934" height="934" viewBox="0 0 934 934" fill="none" xmlns="http://www.w3.org/2000/svg">
<path d="M466.672 655.199C362.713 655.199 278.139 570.626 278.139 466.666C278.139 362.706 362.712 278.133 466.672 278.133C570.632 278.133 655.205 362.706 655.205 466.666C655.205 570.626 570.632 655.199 466.672 655.199ZM466.672 309.173C379.833 309.173 309.179 379.818 309.179 466.666C309.179 553.505 379.829 624.159 466.672 624.159C553.515 624.159 624.165 553.509 624.165 466.666C624.165 379.823 553.515 309.173 466.672 309.173Z" fill="white"/>
<path d="M466.672 217.1C458.099 217.1 451.15 210.152 451.15 201.579V127.521C451.15 118.948 458.098 112 466.672 112C475.245 112 482.193 118.948 482.193 127.521V201.579C482.193 210.152 475.245 217.1 466.672 217.1Z" fill="white"/>
<path d="M334.139 252.617C328.775 252.617 323.556 249.825 320.675 244.851L283.649 180.726C279.367 173.299 281.904 163.804 289.331 159.512C296.748 155.221 306.252 157.778 310.544 165.195L347.571 229.32C351.852 236.747 349.316 246.241 341.889 250.533C339.446 251.945 336.775 252.617 334.139 252.617Z" fill="white"/>
<path d="M237.072 349.651C234.436 349.651 231.764 348.979 229.322 347.568L165.196 310.541C157.769 306.249 155.233 296.754 159.514 289.328C163.806 281.911 173.317 279.354 180.727 283.645L244.853 320.672C252.28 324.964 254.816 334.459 250.535 341.885C247.655 346.864 242.437 349.651 237.072 349.651Z" fill="white"/>
<path d="M201.579 482.191H127.521C118.948 482.191 112 475.243 112 466.67C112 458.096 118.948 451.148 127.521 451.148H201.579C210.152 451.148 217.1 458.096 217.1 466.67C217.1 475.243 210.152 482.191 201.579 482.191Z" fill="white"/>
<path d="M172.978 651.771C167.613 651.771 162.395 648.979 159.514 644.006C155.233 636.578 157.769 627.084 165.196 622.792L229.322 585.766C236.738 581.484 246.243 584.031 250.535 591.448C254.816 598.875 252.28 608.369 244.853 612.661L180.727 649.688C178.279 651.099 175.608 651.771 172.978 651.771Z" fill="white"/>
<path d="M297.085 775.906C294.449 775.906 291.778 775.234 289.335 773.822C281.908 769.531 279.371 760.036 283.653 752.609L320.679 688.484C324.971 681.067 334.471 678.51 341.893 682.802C349.32 687.093 351.856 696.588 347.575 704.015L310.548 768.14C307.668 773.114 302.45 775.906 297.085 775.906Z" fill="white"/>
<path d="M466.672 821.334C458.099 821.334 451.15 814.387 451.15 805.813V731.756C451.15 723.183 458.098 716.234 466.672 716.234C475.245 716.234 482.193 723.182 482.193 731.756V805.813C482.193 814.386 475.245 821.334 466.672 821.334Z" fill="white"/>
<path d="M636.259 775.906C630.894 775.906 625.675 773.114 622.795 768.14L585.768 704.015C581.487 696.588 584.023 687.094 591.45 682.802C598.867 678.51 608.371 681.067 612.663 688.484L649.69 752.609C653.971 760.036 651.435 769.53 644.008 773.822C641.565 775.234 638.894 775.906 636.259 775.906Z" fill="white"/>
<path d="M760.365 651.771C757.729 651.771 755.057 651.099 752.615 649.688L688.489 612.661C681.062 608.369 678.526 598.875 682.807 591.448C687.099 584.031 696.599 581.484 704.02 585.766L768.146 622.792C775.573 627.084 778.109 636.579 773.828 644.006C770.948 648.98 765.735 651.771 760.365 651.771Z" fill="white"/>
<path d="M805.819 482.191H731.762C723.189 482.191 716.24 475.243 716.24 466.67C716.24 458.096 723.188 451.148 731.762 451.148H805.819C814.392 451.148 821.34 458.096 821.34 466.67C821.34 475.243 814.392 482.191 805.819 482.191Z" fill="white"/>
<path d="M696.273 349.651C690.908 349.651 685.69 346.859 682.809 341.885C678.528 334.458 681.064 324.964 688.491 320.672L752.616 283.645C760.033 279.354 769.538 281.911 773.83 289.328C778.111 296.755 775.575 306.249 768.148 310.541L704.022 347.568C701.58 348.979 698.908 349.651 696.273 349.651Z" fill="white"/>
<path d="M599.206 252.617C596.571 252.617 593.899 251.945 591.456 250.533C584.029 246.242 581.492 236.747 585.774 229.32L622.8 165.195C627.082 157.778 636.592 155.221 644.014 159.512C651.441 163.804 653.977 173.299 649.696 180.726L612.669 244.851C609.789 249.825 604.571 252.617 599.206 252.617Z" fill="white"/>
</svg>
