<svg width="934" height="934" viewBox="0 0 934 934" fill="none" xmlns="http://www.w3.org/2000/svg">
<path fill-rule="evenodd" clip-rule="evenodd" d="M124.552 420H155.667C164.25 420 171.219 413.031 171.219 404.443C171.219 395.859 164.25 388.891 155.667 388.891H124.552C115.969 388.891 109 395.859 109 404.443C109 413.031 115.969 420 124.552 420Z" fill="white"/>
<path fill-rule="evenodd" clip-rule="evenodd" d="M150.123 293.465L177.066 309.023C184.503 313.314 194.019 310.762 198.317 303.325C202.608 295.893 200.056 286.371 192.619 282.074L165.676 266.522C158.244 262.23 148.723 264.777 144.431 272.215C140.134 279.652 142.686 289.173 150.123 293.465Z" fill="white"/>
<path fill-rule="evenodd" clip-rule="evenodd" d="M235.537 196.679L251.089 223.622C255.385 231.059 264.906 233.606 272.339 229.314C279.777 225.023 282.329 215.502 278.037 208.064L262.48 181.121C258.188 173.684 248.668 171.137 241.229 175.428C233.79 179.72 231.24 189.24 235.537 196.679Z" fill="white"/>
<path fill-rule="evenodd" clip-rule="evenodd" d="M357.883 155.557V186.667C357.883 195.255 364.852 202.224 373.44 202.224C382.029 202.224 388.997 195.255 388.997 186.667V155.557C388.997 146.969 382.029 140 373.44 140C364.852 140 357.883 146.969 357.883 155.557Z" fill="white"/>
<path fill-rule="evenodd" clip-rule="evenodd" d="M484.416 181.121L468.864 208.064C464.567 215.501 467.119 225.022 474.557 229.314C481.994 233.606 491.516 231.059 495.808 223.622L511.365 196.679C515.657 189.242 513.105 179.72 505.667 175.428C498.235 171.137 488.714 173.684 484.416 181.121Z" fill="white"/>
<path fill-rule="evenodd" clip-rule="evenodd" d="M581.216 266.537L554.273 282.094C546.836 286.386 544.284 295.906 548.576 303.345C552.872 310.777 562.388 313.329 569.826 309.037L596.769 293.48C604.206 289.188 606.758 279.668 602.462 272.229C598.17 264.797 588.649 262.245 581.216 266.537Z" fill="white"/>
<path fill-rule="evenodd" clip-rule="evenodd" d="M177.07 499.865L150.127 515.422C142.689 519.714 140.137 529.234 144.429 536.673C148.726 544.105 158.246 546.657 165.68 542.365L192.622 526.808C200.06 522.516 202.612 512.996 198.32 505.557C194.023 498.125 184.503 495.573 177.07 499.865Z" fill="white"/>
<path fill-rule="evenodd" clip-rule="evenodd" d="M254.23 527.145C244.058 541.145 237.121 557.651 234.553 575.557H217.891C189.006 575.557 161.318 587.021 140.891 607.443C120.47 627.869 109.006 655.557 109.006 684.443C109.006 744.583 157.755 793.333 217.891 793.333H684.558C761.886 793.333 824.558 730.661 824.558 653.333C824.558 576.005 761.886 513.333 684.558 513.333H668.303C661.694 440.177 608.975 380.24 539.459 362.867C520.855 288.497 453.542 233.336 373.446 233.336C279.009 233.336 202.339 310.008 202.339 404.443C202.339 452.541 222.219 496.036 254.23 527.145ZM793.443 653.333C793.443 593.197 744.694 544.443 684.553 544.443H653.443C644.855 544.443 637.886 537.474 637.886 528.891C637.886 451.625 575.151 388.891 497.886 388.891C430.189 388.891 373.662 437.031 360.686 500.921C359.175 508.369 352.519 513.63 344.926 513.38C344.056 513.348 343.202 513.333 342.332 513.333C299.395 513.333 264.551 548.177 264.551 591.109C264.551 599.697 257.582 606.666 248.999 606.666H217.884C197.259 606.666 177.472 614.864 162.879 629.437C148.305 644.03 140.108 663.817 140.108 684.442C140.108 727.395 174.936 762.223 217.884 762.223H684.551C744.691 762.223 793.442 713.469 793.442 653.333L793.443 653.333ZM505.523 357.947C486.341 303.504 434.419 264.441 373.441 264.441C296.175 264.441 233.441 327.181 233.441 404.441C233.441 443.801 249.727 479.389 275.91 504.837C292.025 492.41 311.702 484.4 333.139 482.608C353.327 410.635 419.489 357.775 497.886 357.775C500.454 357.775 502.99 357.837 505.527 357.946L505.523 357.947Z" fill="white"/>
</svg>
