<svg width="934" height="934" viewBox="0 0 934 934" fill="none" xmlns="http://www.w3.org/2000/svg">
<path d="M710.699 694.866H212.312C157 694.866 112 649.866 112 594.554C112 544.44 148.937 502.789 197.021 495.409C196.865 493.295 196.787 491.175 196.787 489.045C196.787 441.545 235.427 402.905 282.927 402.905C293.76 402.905 304.266 404.879 314.088 408.707C333.911 309.904 420.052 238 523.195 238C640.84 238 736.555 333.713 736.555 451.36C736.555 459.683 736.06 468.032 735.081 476.313C784.602 487.543 821.336 532.084 821.336 584.225C821.336 645.236 771.705 694.865 710.7 694.865L710.699 694.866ZM212.725 525.333C174.089 525.333 143.059 556.39 143.059 594.557C143.059 632.75 174.127 663.817 212.319 663.817H710.705C754.591 663.817 790.289 628.114 790.289 584.233C790.289 542.624 757.768 507.749 716.253 504.837C711.811 504.525 707.722 502.321 705.014 498.785C702.311 495.254 701.248 490.728 702.107 486.358C704.363 474.853 705.509 463.077 705.509 451.363C705.509 350.837 623.727 269.057 523.202 269.057C428.322 269.057 350.269 340.265 341.655 434.683C341.14 440.339 337.582 445.261 332.369 447.517C327.161 449.772 321.129 449.011 316.661 445.522C306.932 437.954 295.27 433.949 282.937 433.949C252.557 433.949 227.843 458.662 227.843 489.042C227.843 494.568 228.672 500.042 230.307 505.318C231.771 510.026 230.906 515.157 227.979 519.125C224.515 523.823 218.62 525.755 212.786 525.328H212.728L212.725 525.333Z" fill="white"/>
</svg>
