<svg width="934" height="934" viewBox="0 0 934 934" fill="none" xmlns="http://www.w3.org/2000/svg">
<path d="M192.079 603.426H193.324C202.251 603.301 427.617 600.41 525.964 599.165L571.043 598.577C626.949 597.863 673.521 560.713 689.855 510.254C703.448 510.067 712.131 509.973 713.281 509.973C747.255 509.504 778.959 495.879 802.661 471.582C826.369 447.285 839.188 415.207 838.749 381.265C838.161 336.343 814.047 295.338 775.405 272.937C764.113 230.467 725.473 200.51 681.108 200.51H679.863C671.999 200.599 664.254 201.625 656.754 203.557C633.639 165.973 593.191 143.234 548.614 143.234H546.932C491.52 143.948 443.02 181.625 427.281 233.984C419.937 232.739 412.442 231.869 404.724 231.869H404.692C348.536 232.614 300.656 269.104 284.76 321.932C283.672 321.932 282.614 321.776 281.401 321.901C255.328 322.213 230.937 332.698 212.74 351.365C197.464 367.047 188.068 386.953 185.672 408.422C161.593 410.01 139.256 420.276 122.265 437.698C104.068 456.365 94.2343 481.005 94.5463 507.047C95.2286 560.183 138.973 603.427 192.077 603.427L192.079 603.426ZM547.252 168.119C585.392 167.062 621.95 189.056 639.779 224.119C642.675 229.812 649.362 232.364 655.306 230.093C663.238 227.077 671.608 225.489 680.227 225.364H681.159C715.659 225.364 745.561 249.724 752.435 283.604C753.149 287.307 755.545 290.448 758.873 292.192C792.346 309.646 813.441 343.87 813.909 381.572C814.284 408.859 803.987 434.651 784.914 454.218C765.873 473.754 740.3 484.707 713.169 485.051C712.268 485.051 705.638 485.145 695.185 485.27C695.747 480.166 696.617 475.16 696.555 469.9C695.935 424.947 671.82 383.974 633.18 361.54C621.951 319.259 583.153 289.144 537.701 289.144H537.67C529.8 289.238 522.019 290.264 514.493 292.223C499.654 268.113 477.471 250.16 451.305 240.359C464.216 198.64 502.982 168.708 547.252 168.119ZM140.066 455.052C153.628 441.146 171.8 433.339 191.987 433.088L196.654 433.245C200.076 433.463 203.498 432.062 206.018 429.698C208.539 427.302 209.94 423.849 209.909 420.364C209.659 401.01 217.003 382.656 230.565 368.75C244.128 354.843 262.3 347.036 282.737 346.786C286.034 346.786 289.331 347.004 292.539 347.437C299.008 348.338 305.013 344.046 306.383 337.666C316.154 291.374 357.623 257.338 406.372 256.745C445.044 256.745 479.951 278.182 497.498 312.714C500.362 318.407 507.081 320.99 513.024 318.719C520.988 315.703 529.358 314.115 538.942 313.99C573.379 313.99 603.343 338.474 610.124 372.198C610.869 375.901 613.265 379.042 616.593 380.786C650.036 398.208 671.161 432.494 671.661 470.166C671.755 477.323 671.073 484.322 669.734 491.104C668.364 493.125 667.401 495.458 667.432 498.073C667.432 498.229 667.526 498.354 667.526 498.51C655.703 541.161 617.219 573.021 570.771 573.614L525.692 574.203C427.348 575.546 202.012 578.406 193.079 578.5L192.116 578.531C152.574 578.531 119.97 546.333 119.47 506.728C119.189 487.343 126.533 468.988 140.064 455.051L140.066 455.052Z" fill="white"/>
</svg>
