<svg width="934" height="934" viewBox="0 0 934 934" fill="none" xmlns="http://www.w3.org/2000/svg">
<path d="M671.981 560.255H262.021C189.776 560.255 131 501.437 131 429.145C131 362.38 181.385 306.547 246.953 299.031C275.584 226.948 345.828 179 423.94 179C508.503 179 583.02 235.495 606.753 315.4C626.513 304.061 648.78 298.124 671.977 298.124C744.228 298.129 803.004 356.905 803.004 429.151C803.004 501.448 744.228 560.26 671.983 560.26L671.981 560.255ZM423.941 200.681C352.635 200.681 288.728 245.76 264.915 312.859C263.462 316.958 259.691 319.786 255.352 320.051C197.779 323.52 152.68 371.437 152.68 429.145C152.68 489.483 201.732 538.577 262.024 538.577H671.984C732.276 538.577 781.328 489.483 781.328 429.145C781.328 368.847 732.276 319.795 671.984 319.795C648.135 319.795 625.479 327.29 606.457 341.473C603.489 343.686 599.588 344.233 596.14 342.921C592.676 341.613 590.124 338.624 589.369 335.004C573.129 257.171 503.557 200.684 423.942 200.684L423.941 200.681Z" fill="white"/>
<path d="M293.169 753.496C260.647 753.496 234.195 727.043 234.195 694.527C234.195 665.136 276.737 618.344 285.269 609.262C289.362 604.902 296.967 604.902 301.066 609.262C309.597 618.345 352.145 665.136 352.145 694.527C352.15 727.043 325.691 753.496 293.171 753.496H293.169ZM293.169 632.903C275.674 653.174 255.871 681.242 255.871 694.528C255.871 715.091 272.601 731.82 293.169 731.82C313.737 731.82 330.471 715.091 330.471 694.528C330.471 681.242 310.669 653.179 293.169 632.903Z" fill="white"/>
<path d="M467.009 753.496C434.487 753.496 408.035 727.043 408.035 694.527C408.035 665.136 450.577 618.344 459.109 609.262C463.202 604.902 470.817 604.902 474.906 609.262C483.437 618.345 525.979 665.136 525.979 694.527C525.984 727.043 499.531 753.496 467.01 753.496H467.009ZM467.009 632.903C449.514 653.174 429.711 681.242 429.711 694.528C429.711 715.091 446.441 731.82 467.009 731.82C487.577 731.82 504.306 715.091 504.306 694.528C504.306 681.242 484.503 653.179 467.009 632.903Z" fill="white"/>
<path d="M640.848 753.496C608.326 753.496 581.869 727.043 581.869 694.527C581.869 665.136 624.416 618.344 632.948 609.262C637.047 604.902 644.656 604.902 648.745 609.262C657.276 618.345 699.818 665.136 699.818 694.527C699.824 727.043 673.37 753.496 640.849 753.496H640.848ZM640.848 632.903C623.353 653.174 603.545 681.242 603.545 694.528C603.545 715.091 620.28 731.82 640.848 731.82C661.416 731.82 678.145 715.091 678.145 694.528C678.145 681.242 658.338 653.179 640.848 632.903Z" fill="white"/>
</svg>
