<svg width="934" height="934" viewBox="0 0 934 934" fill="none" xmlns="http://www.w3.org/2000/svg">
<path d="M632.439 394.025C625.23 354.697 590.751 325.222 549.745 325.222C541.469 325.222 533.391 326.383 525.615 328.722C497.557 282.435 447.875 254.195 393.093 254.195C312.697 254.195 246.973 314.321 238.88 393.022C183.281 407.355 144 457.329 144 515.809C144 585.778 200.927 642.705 270.901 642.705C278.683 642.705 284.995 636.392 284.995 628.611C284.995 620.814 278.682 614.502 270.901 614.502C216.475 614.502 172.199 570.231 172.199 515.809C172.199 467.377 206.819 426.454 254.537 418.481C257.381 418.017 264.022 418.757 265.928 416.58C267.829 414.418 266.209 407.934 266.313 405.048C268.569 336.262 324.261 282.382 393.1 282.382C441.455 282.382 484.964 309.294 506.631 352.616C508.178 355.721 509.563 363.945 512.855 365.064C516.157 366.205 522.256 360.507 525.391 358.991C533.021 355.288 541.219 353.418 549.755 353.418C579.395 353.418 603.891 376.564 605.542 406.132C605.698 408.835 604.38 414.897 606.141 416.97C607.917 419.012 614.125 418.595 616.781 419.147C662.375 428.538 695.459 469.174 695.459 515.814C695.459 570.235 651.188 614.507 596.765 614.507C589.599 615.184 583.969 621.273 583.969 628.617C583.969 635.955 589.594 641.908 596.765 642.586C665.921 641.633 723.661 585.201 723.661 515.815C723.651 459.326 685.859 409.659 632.437 394.018L632.439 394.025Z" fill="white"/>
<path d="M477.345 262.409C498.528 243.868 525.902 233.321 554.678 233.321C619.476 233.321 672.173 286.019 672.173 350.816C672.173 365.103 669.595 379.128 664.637 392.259C673.142 396.972 681.079 402.545 688.366 408.805C696.267 390.628 700.376 370.967 700.376 350.811C700.376 270.461 635.032 205.117 554.683 205.117C514.771 205.117 477.038 221.497 449.787 249.789C459.36 253.149 468.58 257.368 477.345 262.409Z" fill="white"/>
<path d="M783.199 416.18L740.741 391.024C734.6 387.399 726.662 389.43 723.027 395.565C719.386 401.706 721.423 409.628 727.569 413.279L770.017 438.419C776.163 442.059 784.085 440.028 787.725 433.893C791.365 427.736 789.34 419.81 783.199 416.18Z" fill="white"/>
<path d="M732.585 270.901L776.184 247.786C782.496 244.453 784.887 236.625 781.553 230.313C778.22 224 770.387 221.61 764.08 224.938L720.476 248.052C714.164 251.401 711.757 259.214 715.106 265.526C718.445 271.838 726.273 274.234 732.585 270.901Z" fill="white"/>
<path d="M591.918 180.736C598.772 182.73 605.939 178.788 607.934 171.923L621.663 124.522C623.653 117.678 619.705 110.506 612.845 108.511C605.991 106.532 598.824 110.475 596.835 117.324L583.095 164.74C581.115 171.589 585.063 178.761 591.918 180.734L591.918 180.736Z" fill="white"/>
<path d="M434.599 219.126C439.724 224.1 447.906 223.991 452.88 218.866C457.854 213.756 457.729 205.574 452.614 200.584L417.218 166.215C412.093 161.241 403.921 161.366 398.937 166.475C393.963 171.585 394.088 179.783 399.203 184.741L434.599 219.126Z" fill="white"/>
<path d="M289.604 794.477C262.308 794.477 240.105 772.238 240.105 744.904C240.105 720.196 275.812 680.86 282.974 673.225C286.41 669.56 292.792 669.56 296.233 673.225C303.394 680.861 339.105 720.196 339.105 744.904C339.11 772.238 316.902 794.477 289.607 794.477H289.604ZM289.604 693.099C274.92 710.14 258.299 733.735 258.299 744.905C258.299 762.191 272.341 776.255 289.604 776.255C306.868 776.255 320.914 762.191 320.914 744.905C320.914 733.736 304.293 710.144 289.604 693.099Z" fill="white"/>
<path d="M434.607 729.477C407.309 729.477 385.105 707.238 385.105 679.904C385.105 655.196 420.814 615.86 427.975 608.225C431.412 604.56 437.803 604.56 441.235 608.225C448.396 615.861 484.105 655.196 484.105 679.904C484.11 707.238 461.906 729.477 434.608 729.477H434.607ZM434.607 628.099C419.922 645.14 403.3 668.735 403.3 679.905C403.3 697.191 417.342 711.255 434.607 711.255C451.871 711.255 465.913 697.191 465.913 679.905C465.913 668.736 449.291 645.144 434.607 628.099Z" fill="white"/>
<path d="M579.609 824.477C552.312 824.477 530.105 802.238 530.105 774.904C530.105 750.196 565.817 710.86 572.978 703.225C576.418 699.56 582.805 699.56 586.237 703.225C593.398 710.861 629.105 750.196 629.105 774.904C629.11 802.238 606.907 824.477 579.61 824.477H579.609ZM579.609 723.099C564.925 740.14 548.299 763.735 548.299 774.905C548.299 792.191 562.345 806.255 579.609 806.255C596.872 806.255 610.914 792.191 610.914 774.905C610.914 763.736 594.29 740.144 579.609 723.099Z" fill="white"/>
</svg>
