<svg width="934" height="934" viewBox="0 0 934 934" fill="none" xmlns="http://www.w3.org/2000/svg">
<path d="M694.731 250.469C673.824 180.281 608.116 131 534.198 131C485.667 131 440.864 151.907 408.76 187.745C397.562 184.761 385.615 183.266 373.667 183.266C323.64 183.266 278.839 208.651 252.708 251.214C249.724 250.469 245.989 250.469 243 250.469C181.027 250.469 131 300.496 131 362.469C131 424.443 181.027 474.469 243 474.469H691C752.973 474.469 803 424.443 803 362.469C802.995 301.985 755.208 252.709 694.729 250.469L694.731 250.469ZM690.997 444.603H242.997C197.45 444.603 160.861 408.015 160.861 362.467C160.861 316.919 197.449 280.331 242.997 280.331C248.226 280.331 252.705 281.075 257.929 281.825C264.647 283.32 270.621 279.586 273.611 274.357C293.023 237.023 331.106 213.878 372.918 213.878C384.866 213.878 396.814 216.118 408.011 219.852C413.985 222.092 420.704 219.852 424.438 214.623C452.063 180.273 491.635 160.863 534.198 160.863C598.411 160.863 655.157 206.409 668.598 269.128C670.093 276.597 676.812 281.076 684.281 281.076H690.255C735.801 281.076 772.391 317.664 772.391 363.212C772.38 408.764 736.541 444.603 690.995 444.603H690.997Z" fill="white"/>
<path d="M496.118 523.003V521.508V520.013V519.268V518.524V517.029V515.534C496.118 514.789 496.118 514.789 495.373 514.039C495.373 513.294 495.373 513.294 494.629 512.544C494.629 511.8 493.884 511.8 493.884 511.05C493.884 510.305 493.139 510.305 493.139 509.555C493.139 508.81 492.394 508.81 492.394 508.06L490.905 506.57C490.16 506.57 490.16 505.826 489.41 505.826H488.665H487.92C487.175 505.826 487.175 505.081 486.425 505.081C485.681 505.081 485.681 505.081 484.931 504.336H483.436H481.941H399.801H397.561H396.817C396.072 504.336 396.072 504.336 395.322 505.081C394.577 505.081 394.577 505.081 393.827 505.826C393.082 505.826 393.082 506.57 392.332 506.57L391.587 507.315C390.843 507.315 390.843 508.06 390.093 508.06L388.603 509.549C388.603 510.294 387.858 510.294 387.858 511.044C387.858 511.044 387.858 511.789 387.113 511.789C387.113 512.534 386.369 512.534 386.369 513.284L334.103 647.684C331.864 652.913 333.359 658.137 336.343 662.616C340.077 667.095 345.301 668.59 350.531 667.845L372.932 664.111L341.572 783.58C339.333 791.049 343.067 798.512 350.531 801.501C352.77 802.246 354.265 802.996 356.505 802.996C361.734 802.996 366.213 800.012 369.197 795.527L481.197 608.861C484.182 603.631 484.182 597.663 480.453 592.434C476.718 587.955 471.494 584.965 465.521 586.46L459.547 587.955L495.385 526.725V525.981C495.385 525.236 496.13 525.236 496.13 524.486C496.12 523.746 496.12 523.746 496.12 523.002L496.118 523.003ZM396.066 690.256L406.519 649.939C408.014 644.709 406.519 639.486 402.785 635.751C399.05 632.016 394.571 630.521 389.347 631.271L370.681 634.256L410.254 534.204H455.801L416.973 601.401C413.988 606.63 413.988 612.599 417.718 617.828C421.452 622.307 426.676 625.297 432.65 623.802L437.129 623.057L396.066 690.256Z" fill="white"/>
</svg>
