<svg width="934" height="934" viewBox="0 0 934 934" fill="none" xmlns="http://www.w3.org/2000/svg">
<mask id="mask0_1217_465" style="mask-type:luminance" maskUnits="userSpaceOnUse" x="140" y="93" width="653" height="747">
<path d="M140 93H792.707V839.667H140V93Z" fill="white"/>
</mask>
<g mask="url(#mask0_1217_465)">
<path d="M783.48 628.534L668.573 562.154L776.704 528.367C784.652 524.753 788.662 515.784 786.053 507.45C783.449 499.117 775.037 494.029 766.449 495.591L627.916 538.716L500.65 465.465L625.265 392.949L766.078 436.897C770.5 438.574 775.417 438.366 779.682 436.319C783.948 434.278 787.193 430.574 788.656 426.079C790.125 421.579 789.682 416.678 787.443 412.511C785.198 408.345 781.349 405.282 776.786 404.027L666.37 369.511L782.558 302.396C790.402 297.428 792.928 287.156 788.282 279.12C783.637 271.079 773.476 268.141 765.252 272.459L650.44 338.746L675.252 228.235C676.684 223.599 676.111 218.579 673.668 214.391C671.226 210.203 667.137 207.235 662.398 206.203C657.658 205.177 652.705 206.177 648.747 208.974C644.783 211.771 642.174 216.099 641.56 220.907L609.789 362.28L483.346 435.531V291.144L590.925 191.983C594.779 189.024 597.211 184.581 597.628 179.743C598.045 174.904 596.404 170.113 593.117 166.54C589.826 162.967 585.185 160.941 580.331 160.957C575.472 160.972 570.847 163.029 567.581 166.623L483.346 244.175V110.229C483.346 100.671 475.596 92.9219 466.04 92.9219C456.483 92.9219 448.733 100.672 448.733 110.229V244.175L364.498 166.623C361.295 162.785 356.587 160.524 351.587 160.415C346.587 160.311 341.785 162.373 338.42 166.071C335.056 169.769 333.457 174.743 334.03 179.711C334.608 184.68 337.306 189.154 341.425 191.982L448.827 291.143V435.263L323.119 362.566L291.072 220.926C290.317 216.207 287.645 212.009 283.687 209.332C279.728 206.65 274.838 205.728 270.176 206.78C265.515 207.832 261.494 210.765 259.072 214.884C256.645 219.004 256.03 223.942 257.379 228.53L282.098 339.04L166.827 272.478C158.556 267.597 147.901 270.342 143.021 278.608C138.14 286.879 140.885 297.535 149.156 302.415L265.896 369.8L155.839 404.045C151.208 405.201 147.261 408.212 144.927 412.373C142.594 416.53 142.083 421.467 143.511 426.019C144.938 430.571 148.182 434.331 152.474 436.409C156.766 438.493 161.729 438.706 166.182 437.008L306.995 393.06L431.517 464.935L304.803 538.456L166.177 495.15C161.724 493.447 156.76 493.665 152.469 495.743C148.177 497.827 144.932 501.582 143.505 506.134C142.078 510.686 142.589 515.624 144.922 519.785C147.255 523.946 151.203 526.957 155.833 528.108L263.964 561.894L148.6 628.55C144.428 630.738 141.334 634.535 140.022 639.061C138.715 643.587 139.308 648.451 141.663 652.53C144.022 656.608 147.939 659.551 152.517 660.676C157.09 661.801 161.928 661.009 165.907 658.488L282.647 591.103L257.283 703.906C255.236 713.203 261.085 722.411 270.377 724.504C271.622 724.645 272.882 724.645 274.132 724.504C282.195 724.494 289.184 718.911 290.976 711.046L323.116 567.566L448.554 495.144L448.548 642.091L341.423 740.971C337.939 744.054 335.835 748.409 335.595 753.054C335.355 757.7 336.996 762.247 340.147 765.669C343.298 769.091 347.694 771.101 352.345 771.247C356.996 771.388 361.512 769.648 364.866 766.424L449.1 688.872V822.272C449.1 831.829 456.845 839.575 466.403 839.575C475.96 839.575 483.71 831.83 483.71 822.272V688.779L567.944 766.331C571.299 769.555 575.809 771.289 580.46 771.149C585.111 771.008 589.512 768.998 592.663 765.576C595.814 762.149 597.455 757.602 597.215 752.956C596.976 748.31 594.871 743.956 591.382 740.878L483.346 642.086V495.592L609.242 568.29L641.565 712.223L641.559 712.218C642.315 716.942 644.986 721.135 648.945 723.817C652.903 726.494 657.789 727.421 662.455 726.369C667.117 725.317 671.138 722.385 673.56 718.265C675.981 714.145 676.596 709.208 675.252 704.62L649.982 591.365L766.17 658.48V658.474C774.394 662.792 784.555 659.855 789.2 651.813C793.846 643.776 791.32 633.506 783.476 628.537L783.48 628.534Z" fill="white"/>
</g>
</svg>
