<svg width="934" height="934" viewBox="0 0 934 934" fill="none" xmlns="http://www.w3.org/2000/svg">
<path d="M758.666 303H385.333C376.994 303 369.292 307.448 365.125 314.667C360.958 321.885 360.958 330.781 365.125 338C369.292 345.219 376.995 349.667 385.333 349.667H758.666C767.005 349.667 774.708 345.219 778.874 338C783.041 330.781 783.041 321.885 778.874 314.667C774.708 307.448 767.005 303 758.666 303Z" fill="white"/>
<path d="M548.666 583H175.333C166.994 583 159.292 587.448 155.125 594.667C150.958 601.885 150.958 610.781 155.125 618C159.292 625.219 166.995 629.667 175.333 629.667H548.666C557.005 629.667 564.708 625.219 568.874 618C573.041 610.781 573.041 601.885 568.874 594.667C564.708 587.448 557.005 583 548.666 583Z" fill="white"/>
<path d="M221.999 443.003H595.332C603.671 443.003 611.374 438.555 615.54 431.336C619.707 424.117 619.707 415.221 615.54 408.003C611.374 400.784 603.671 396.336 595.332 396.336H221.999C213.66 396.336 205.958 400.784 201.791 408.003C197.624 415.221 197.624 424.117 201.791 431.336C205.958 438.555 213.661 443.003 221.999 443.003Z" fill="white"/>
<path d="M688.666 489.664H315.333C306.994 489.664 299.292 494.112 295.125 501.331C290.958 508.55 290.958 517.445 295.125 524.664C299.292 531.883 306.995 536.331 315.333 536.331H688.666C697.005 536.331 704.708 531.883 708.874 524.664C713.041 517.445 713.041 508.549 708.874 501.331C704.708 494.112 697.005 489.664 688.666 489.664Z" fill="white"/>
</svg>
